<?xml version="1.0" encoding="UTF-8"?>
<svg version="1.1" xmlns="http://www.w3.org/2000/svg" width="200" height="200">
<path d="M0 0 C66 0 132 0 200 0 C200 66 200 132 200 200 C134 200 68 200 0 200 C0 134 0 68 0 0 Z " fill="#FEFEFE" transform="translate(0,0)"/>
<path d="M0 0 C-0.33 12.87 -0.66 25.74 -1 39 C0.19625 35.926875 1.3925 32.85375 2.625 29.6875 C12.55499245 4.72250378 12.55499245 4.72250378 22 0 C23.99960012 -0.039992 26.00047242 -0.04346799 28 0 C27.41139059 4.10812962 26.47208078 7.78854638 25.0625 11.6875 C21.49033445 22.24812035 20.70749517 31.86856621 21 43 C24.90992562 44.05941485 24.90992562 44.05941485 28.625 42.625 C30.9690086 40.03425365 31.46169601 38.96883967 32.375 35.75 C34.07318871 29.87911903 37.72037473 24.96905377 43.00390625 21.796875 C46.10286994 20.55971533 48.70630997 20.70592053 52 21 C54.4375 22.125 54.4375 22.125 56 24 C56.5625 26.875 56.5625 26.875 56 30 C52.36535178 34.9243621 47.53607304 36.84105213 42 39 C42.57344937 41.86724686 42.8614515 42.8614515 45 45 C48.8009503 45.61875935 51.41605912 45.10046119 54.6875 43.1875 C58.66044764 40.12265468 59.34468243 36.48543284 60.37890625 31.73828125 C61.17357591 28.23473765 62.48495898 25.24651647 64 22 C66.97 21.67 69.94 21.34 73 21 C72.01 25.455 72.01 25.455 71 30 C71.45890625 29.51789063 71.9178125 29.03578125 72.390625 28.5390625 C73.00421875 27.90742187 73.6178125 27.27578125 74.25 26.625 C74.85328125 25.99851562 75.4565625 25.37203125 76.078125 24.7265625 C78.81059764 22.27178017 80.96265239 21.09879501 84.625 20.75 C87 21 87 21 89 23 C89.70402602 28.63220819 88.18139373 32.47283431 85.95703125 37.62109375 C84.84537302 40.3843585 84.31136021 43.04207801 84 46 C88.10419245 44.17591447 90.64495842 42.84142029 93 39 C93.76411831 36.66957511 94.44597584 34.31124281 95.0625 31.9375 C96.79465056 25.30802416 96.79465056 25.30802416 99 22 C101.1640625 21.48828125 101.1640625 21.48828125 103.625 21.3125 C104.44226563 21.24675781 105.25953125 21.18101563 106.1015625 21.11328125 C107.04128906 21.05720703 107.04128906 21.05720703 108 21 C107.80664062 21.6290625 107.61328125 22.258125 107.4140625 22.90625 C103.90320486 33.74151543 103.90320486 33.74151543 103 45 C106.6320392 44.60748627 106.6320392 44.60748627 109.48828125 42.4921875 C112.01053284 38.33405697 113.19393327 33.66551491 114.57421875 29.0234375 C116.40656903 23.37940668 116.40656903 23.37940668 119.3828125 21.4765625 C121.99465697 21.00097291 124.3516767 20.84866724 127 21 C126.80664062 21.64066406 126.61328125 22.28132813 126.4140625 22.94140625 C125.87338872 24.73740678 125.33578054 26.53433222 124.80078125 28.33203125 C124.15693944 30.47712371 123.48862649 32.61486373 122.8125 34.75 C122.00686262 37.9725495 121.83873663 40.69410087 122 44 C125.77254453 43.49019669 127.44987123 42.79299818 130 40 C130.66 40 131.32 40 132 40 C132 41.32 132 42.64 132 44 C129.76953125 46.140625 129.76953125 46.140625 126.8125 48.25 C125.84957031 48.95640625 124.88664063 49.6628125 123.89453125 50.390625 C120.86805189 52.07336386 119.38930386 52.46485244 116 52 C114.1875 50.8125 114.1875 50.8125 113 49 C112.8125 46.3125 112.8125 46.3125 113 44 C112.34 44 111.68 44 111 44 C110.814375 44.5775 110.62875 45.155 110.4375 45.75 C108.33478437 49.04120707 105.55672715 50.50202636 102 52 C99.25 52.4375 99.25 52.4375 97 52 C94.73095191 50.23518482 93.6196228 48.42943419 92 46 C91.01 46.804375 90.02 47.60875 89 48.4375 C84.96993766 51.32666893 81.93600904 51.91633883 77 52 C74.48577752 49.48577752 74.6750248 48.54922872 74.625 45.0625 C74.70749086 38.82619111 76.54180764 33.67359575 79 28 C74.14704297 30.82148665 70.35461237 33.7780774 68 39 C67.32752837 42.6689261 67.07411641 46.27396614 67 50 C61.25 52 61.25 52 59 52 C59 49.36 59 46.72 59 44 C58.34 44 57.68 44 57 44 C57 44.66 57 45.32 57 46 C53.03025122 49.62251307 48.76599177 52.39998598 43.3125 52.6875 C38.50640066 52.35022987 36.19194852 50.51932785 33 47 C33 46.01 33 45.02 33 44 C32.46890625 44.40992188 31.9378125 44.81984375 31.390625 45.2421875 C30.68421875 45.78101563 29.9778125 46.31984375 29.25 46.875 C28.55390625 47.40867188 27.8578125 47.94234375 27.140625 48.4921875 C23.06244589 51.36477351 20.07825873 52.7405794 15 52 C9.94259024 46.94259024 9.68823384 42.22163459 9.59960938 35.34130859 C9.72786737 27.42892195 12.37182502 20.37766262 15 13 C15 12.67 15 12.34 15 12 C13.82751291 14.28884447 12.66095894 16.58030461 11.5 18.875 C11.1405127 19.58446777 10.78102539 20.29393555 10.41064453 21.02490234 C8.45792967 24.92608148 6.60604669 28.84431655 4.8984375 32.859375 C4.55876953 33.6548877 4.21910156 34.45040039 3.86914062 35.27001953 C3.22235411 36.80216657 2.58755216 38.33944696 1.96679688 39.88232422 C-0.22028623 45.0538157 -2.6826036 48.36429777 -7 52 C-10.375 52.375 -10.375 52.375 -13 52 C-12.84402344 51.08605469 -12.68804687 50.17210937 -12.52734375 49.23046875 C-11.77249766 43.94919937 -11.72417039 38.63811279 -11.5625 33.3125 C-11.27321222 25.05498962 -10.82547787 17.08172729 -9 9 C-9.43699219 10.41925781 -9.43699219 10.41925781 -9.8828125 11.8671875 C-10.99040663 15.45230689 -12.1197061 19.03035726 -13.25146484 22.60791016 C-14.00272569 25.00871048 -14.73029424 27.41589711 -15.45703125 29.82421875 C-15.94969708 31.40390298 -16.44316749 32.98333653 -16.9375 34.5625 C-17.1535791 35.29903809 -17.3696582 36.03557617 -17.59228516 36.79443359 C-19.4929226 42.75102864 -22.5219955 47.87040702 -27.96850586 51.20532227 C-31.19226996 52.46639091 -33.69726249 51.78064705 -37 51 C-39 49.75 -39 49.75 -40 48 C-39.91877503 44.75100104 -39.43254382 43.43254382 -37.125 41.125 C-36.42375 40.75375 -35.7225 40.3825 -35 40 C-34.01 40.33 -33.02 40.66 -32 41 C-31.67 42.65 -31.34 44.3 -31 46 C-28.62102997 46.04510361 -28.62102997 46.04510361 -26 45 C-22.89007688 40.25359307 -21.01342779 35.60934823 -19.4375 30.1875 C-19.11845703 29.13647095 -19.11845703 29.13647095 -18.79296875 28.06420898 C-17.88782231 25.07039573 -17.01944374 22.07082406 -16.19140625 19.0546875 C-13.5810712 9.64568318 -10.74028466 0 0 0 Z " fill="#424244" transform="translate(54,61)"/>
<path d="M0 0 C-0.30921884 1.45903258 -0.62248799 2.91720722 -0.9375 4.375 C-1.11152344 5.18710938 -1.28554687 5.99921875 -1.46484375 6.8359375 C-2 9 -2 9 -3 11 C-3.09584979 12.8521563 -3.12983606 14.70787153 -3.125 16.5625 C-3.12757813 17.55378906 -3.13015625 18.54507813 -3.1328125 19.56640625 C-3.27438431 21.94812348 -3.27438431 21.94812348 -2 23 C4.6291777 22.76739727 8.66023196 20.84860941 14 17 C15.32 18.98 16.64 20.96 18 23 C23.42892065 22.56568635 26.70796704 21.37231161 31 18 C31.33 17.34 31.66 16.68 32 16 C32.66 16 33.32 16 34 16 C34.309375 16.969375 34.61875 17.93875 34.9375 18.9375 C35.69523342 21.84065792 35.69523342 21.84065792 37 23 C39.33746522 22.69699525 41.67085177 22.36141955 44 22 C44.99 22 45.98 22 47 22 C46.34 22.66 45.68 23.32 45 24 C47.64 25.32 50.28 26.64 53 28 C52.67 29.32 52.34 30.64 52 32 C48 30 48 30 46.19140625 28.91796875 C41.47349062 26.94165828 35.47764678 28.19114624 30.7265625 29.7421875 C29.12169239 30.42998897 27.5547405 31.20535486 26 32 C27.2375 33.2375 27.2375 33.2375 28.5 34.5 C30.59840627 37.03007841 31.43990619 38.83033014 31.625 42.125 C31 46 31 46 28.9375 48.5 C25.30858192 50.35306455 23.02509747 50.52177189 19 50 C17 48.75 17 48.75 16 47 C16.3125 44.8125 16.3125 44.8125 17 43 C19.51083114 44.25541557 19.87125446 45.50063488 21 48 C24.29075996 47.62095792 24.29075996 47.62095792 27 46 C27.19965405 43.96618256 27.19965405 43.96618256 27.1875 41.625 C27.20167969 40.83351562 27.21585937 40.04203125 27.23046875 39.2265625 C27.14507509 36.71268667 27.14507509 36.71268667 25 34 C20.61787253 34.26292765 18.5518451 34.47382211 15.3125 37.5625 C11.66494976 40.89879262 7.87226876 40.68964832 3.11328125 40.5 C-3.04361775 39.51118812 -7.88909545 36.4072697 -13 33 C-12.67 33.66 -12.34 34.32 -12 35 C-10.515 35.495 -10.515 35.495 -9 36 C-9 36.66 -9 37.32 -9 38 C-10.8125 37.875 -10.8125 37.875 -13 37 C-13.45375 36.05125 -13.9075 35.1025 -14.375 34.125 C-16.34552063 30.33553724 -18.11101614 29.55559354 -22 28 C-22 28.99 -22 29.98 -22 31 C-21.34 31 -20.68 31 -20 31 C-20.25 33.875 -20.25 33.875 -21 37 C-23.93590067 39.01964156 -25.86393867 39.1566571 -29.3125 38.5625 C-32.56715805 38.08151605 -34.41175162 38.0754878 -37.75 38.6875 C-41 39 -41 39 -43.9375 37.0625 C-44.618125 36.381875 -45.29875 35.70125 -46 35 C-45.125 31.125 -45.125 31.125 -44 30 C-42.33382885 29.95936168 -40.66611905 29.957279 -39 30 C-39 30.66 -39 31.32 -39 32 C-40.98 32.495 -40.98 32.495 -43 33 C-42.67 33.99 -42.34 34.98 -42 36 C-36.91696314 36.11320856 -36.91696314 36.11320856 -32 35 C-32 32.69 -32 30.38 -32 28 C-42.23240558 27.37841363 -42.23240558 27.37841363 -51 32 C-52.19027984 34.59915538 -52.19027984 34.59915538 -53 37 C-55.125 37.8125 -55.125 37.8125 -57 38 C-57 36 -57 36 -56 35 C-56.54269531 35.27714844 -57.08539063 35.55429688 -57.64453125 35.83984375 C-58.71767578 36.38318359 -58.71767578 36.38318359 -59.8125 36.9375 C-60.87404297 37.47697266 -60.87404297 37.47697266 -61.95703125 38.02734375 C-67.17217837 40.5102723 -72.32105022 40.74637626 -78 40 C-80.6189244 38.61836272 -81.94191201 37.21640245 -84 35 C-84.66 34.34 -85.32 33.68 -86 33 C-81.6520818 33.65877548 -78.02582681 35.27464565 -74 37 C-71.22111387 37.69140522 -71.22111387 37.69140522 -69 38 C-70.57560656 34.62212068 -71.38264018 33.2421505 -74.91796875 31.85546875 C-75.99691406 31.63503906 -77.07585937 31.41460937 -78.1875 31.1875 C-79.27417969 30.95417969 -80.36085938 30.72085938 -81.48046875 30.48046875 C-82.72763672 30.24263672 -82.72763672 30.24263672 -84 30 C-84 29.67 -84 29.34 -84 29 C-78.36857798 28.70871955 -74.89968291 28.88201997 -70 32 C-69.34 32.7425 -68.68 33.485 -68 34.25 C-67.01 35.11625 -67.01 35.11625 -66 36 C-62.80045046 35.85650653 -62.80045046 35.85650653 -60 35 C-62.97 34.01 -65.94 33.02 -69 32 C-68 28 -68 28 -66.25 26.9453125 C-65.5075 26.67460938 -64.765 26.40390625 -64 26.125 C-59.5945387 24.35438398 -55.91898009 22.09239766 -52.04296875 19.3671875 C-50.08707006 18.05826869 -48.12599337 17.00327777 -46 16 C-45.566875 16.78375 -45.13375 17.5675 -44.6875 18.375 C-43.10779753 21.21698375 -43.10779753 21.21698375 -40 23 C-36.10940362 23.71629197 -32.45449 23.78613678 -28.92578125 21.87890625 C-27.24586368 20.63569681 -25.61896643 19.32160525 -24 18 C-23.34 18 -22.68 18 -22 18 C-22 17.34 -22 16.68 -22 16 C-21.34 16 -20.68 16 -20 16 C-20 18.64 -20 21.28 -20 24 C-17.69 23.34 -15.38 22.68 -13 22 C-13.020625 21.32195312 -13.04125 20.64390625 -13.0625 19.9453125 C-12.87648296 11.55129346 -9.8964611 6.86028649 -4 1 C-2 0 -2 0 0 0 Z M51 16 C51.66 16.33 52.32 16.66 53 17 C51.68 18.32 50.36 19.64 49 21 C48.34 20.67 47.68 20.34 47 20 C48.32 18.68 49.64 17.36 51 16 Z " fill="#F5F6F6" transform="translate(133,89)"/>
<path d="M0 0 C-0.66 2.97 -1.32 5.94 -2 9 C-1.54109375 8.51789063 -1.0821875 8.03578125 -0.609375 7.5390625 C0.00421875 6.90742187 0.6178125 6.27578125 1.25 5.625 C1.85328125 4.99851562 2.4565625 4.37203125 3.078125 3.7265625 C5.81059764 1.27178017 7.96265239 0.09879501 11.625 -0.25 C14 0 14 0 16 2 C16.70402602 7.63220819 15.18139373 11.47283431 12.95703125 16.62109375 C11.84537302 19.3843585 11.31136021 22.04207801 11 25 C15.10419245 23.17591447 17.64495842 21.84142029 20 18 C20.76411831 15.66957511 21.44597584 13.31124281 22.0625 10.9375 C23.79465056 4.30802416 23.79465056 4.30802416 26 1 C28.1640625 0.48828125 28.1640625 0.48828125 30.625 0.3125 C31.44226563 0.24675781 32.25953125 0.18101563 33.1015625 0.11328125 C33.72804687 0.07589844 34.35453125 0.03851563 35 0 C34.80664062 0.6290625 34.61328125 1.258125 34.4140625 1.90625 C30.90320486 12.74151543 30.90320486 12.74151543 30 24 C33.6320392 23.60748627 33.6320392 23.60748627 36.48828125 21.4921875 C39.01053284 17.33405697 40.19393327 12.66551491 41.57421875 8.0234375 C43.40656903 2.37940668 43.40656903 2.37940668 46.3828125 0.4765625 C48.99465697 0.00097291 51.3516767 -0.15133276 54 0 C53.80664062 0.64066406 53.61328125 1.28132813 53.4140625 1.94140625 C52.87338872 3.73740678 52.33578054 5.53433222 51.80078125 7.33203125 C51.15693944 9.47712371 50.48862649 11.61486373 49.8125 13.75 C49.00686262 16.9725495 48.83873663 19.69410087 49 23 C52.77254453 22.49019669 54.44987123 21.79299818 57 19 C57.66 19 58.32 19 59 19 C59 20.32 59 21.64 59 23 C56.76953125 25.140625 56.76953125 25.140625 53.8125 27.25 C52.84957031 27.95640625 51.88664062 28.6628125 50.89453125 29.390625 C47.86805189 31.07336386 46.38930386 31.46485244 43 31 C41.1875 29.8125 41.1875 29.8125 40 28 C39.8125 25.3125 39.8125 25.3125 40 23 C39.34 23 38.68 23 38 23 C37.7215625 23.86625 37.7215625 23.86625 37.4375 24.75 C35.33478437 28.04120707 32.55672715 29.50202636 29 31 C26.25 31.4375 26.25 31.4375 24 31 C21.73095191 29.23518482 20.6196228 27.42943419 19 25 C18.01 25.804375 17.02 26.60875 16 27.4375 C11.96993766 30.32666893 8.93600904 30.91633883 4 31 C1.48577752 28.48577752 1.6750248 27.54922872 1.625 24.0625 C1.70749086 17.82619111 3.54180764 12.67359575 6 7 C1.14704297 9.82148665 -2.64538763 12.7780774 -5 18 C-5.67247163 21.6689261 -5.92588359 25.27396614 -6 29 C-11.75 31 -11.75 31 -14 31 C-14 28.36 -14 25.72 -14 23 C-14.66 23 -15.32 23 -16 23 C-16 23.66 -16 24.32 -16 25 C-18.31 26.32 -20.62 27.64 -23 29 C-23.33 28.01 -23.66 27.02 -24 26 C-23.38511719 25.62230469 -22.77023438 25.24460937 -22.13671875 24.85546875 C-15.13122498 20.08458225 -13.62612423 16.0950126 -12 8 C-11.19764223 5.416136 -10.30381139 3.39901296 -9 1 C-6.15435295 -0.42282353 -3.15175536 -0.08754876 0 0 Z " fill="#434344" transform="translate(127,82)"/>
<path d="M0 0 C1.09341568 3.28024705 0.89219241 4.18027306 0.09375 7.42578125 C-1.40790067 14.36587649 -1.41747376 21.26750379 -1.56640625 28.34179688 C-1.72929458 33.91895169 -2.14902506 38.7232287 -4 44 C-2.948125 43.79375 -1.89625 43.5875 -0.8125 43.375 C-0.22082031 43.25898437 0.37085937 43.14296875 0.98046875 43.0234375 C8.43107506 39.24769504 10.97134381 29.78923241 14 22.625 C17.2241731 15.0473749 20.38407127 7.83904146 25 1 C25.495 1.99 25.495 1.99 26 3 C25.29296875 5.1015625 25.29296875 5.1015625 24.1875 7.625 C20.16877073 17.40066324 17.30576733 29.11296737 21.3203125 39.375 C23.45306575 42.70804693 25.2152534 43.1589452 29 44 C27.694761 46.61047801 26.64173426 46.68066423 23.9375 47.625 C22.83728516 48.01558594 22.83728516 48.01558594 21.71484375 48.4140625 C21.14894531 48.60742188 20.58304688 48.80078125 20 49 C20 49.99 20 50.98 20 52 C22.97 52.66 25.94 53.32 29 54 C28.01 54.99 27.02 55.98 26 57 C21.08885284 57 18.48763785 54.09131537 15 51 C14.67 51 14.34 51 14 51 C14.825 51.598125 15.65 52.19625 16.5 52.8125 C17.325 53.534375 18.15 54.25625 19 55 C19 55.99 19 56.98 19 58 C13.47825287 57.52398732 9.96942761 56.53758006 5 54 C1.26228166 53.2863276 1.26228166 53.2863276 -2 53 C-4.80410698 55.68726919 -5.2663485 57.87652315 -5.375 61.625 C-5.47758762 63.93569896 -5.47758762 63.93569896 -5 66 C-2.31328252 68.22738107 -2.31328252 68.22738107 0.0625 67.875 C2.57283417 66.7413007 3.02691202 65.51381062 4 63 C4.99 63.495 4.99 63.495 6 64 C5.42655063 66.86724686 5.1385485 67.8614515 3 70 C0.94140625 70.08203125 0.94140625 70.08203125 -1.4375 69.8125 C-2.21996094 69.73644531 -3.00242187 69.66039062 -3.80859375 69.58203125 C-6.41525765 68.88970875 -7.40486339 68.160185 -9 66 C-9.86259828 59.42268813 -9.86259828 59.42268813 -7.875 56.14453125 C-6.5 54.5 -6.5 54.5 -4 52 C-13.2144731 48.19123914 -13.2144731 48.19123914 -23 48 C-25.84920053 49.87769142 -25.84920053 49.87769142 -28 52 C-28.66 52 -29.32 52 -30 52 C-30.1875 49.625 -30.1875 49.625 -30 47 C-26.5647952 44.70986347 -25.014669 44.82157027 -21 45 C-21 44.34 -21 43.68 -21 43 C-19.63875 42.13375 -19.63875 42.13375 -18.25 41.25 C-11.75788447 36.75545848 -10.00968849 30.63764085 -8 23.375 C-7.48699131 21.59467286 -6.97267068 19.81472323 -6.45703125 18.03515625 C-6.21033691 17.1755127 -5.96364258 16.31586914 -5.70947266 15.43017578 C-1.7014756 1.7014756 -1.7014756 1.7014756 0 0 Z " fill="#F7F7F7" transform="translate(45,69)"/>
<path d="M0 0 C-0.11920341 4.81988082 -0.24350358 9.63959487 -0.37231445 14.45922852 C-0.41534673 16.09526087 -0.45704065 17.73132905 -0.49731445 19.36743164 C-1.14387425 45.52516567 -1.14387425 45.52516567 -4.6875 50.25 C-7.62364112 52.47194463 -9.40372208 52.32693436 -13 52 C-12.84402344 51.08605469 -12.68804687 50.17210937 -12.52734375 49.23046875 C-11.77249766 43.94919937 -11.72417039 38.63811279 -11.5625 33.3125 C-11.27321222 25.05498962 -10.82547787 17.08172729 -9 9 C-9.43699219 10.41925781 -9.43699219 10.41925781 -9.8828125 11.8671875 C-10.99040663 15.45230689 -12.1197061 19.03035726 -13.25146484 22.60791016 C-14.00272569 25.00871048 -14.73029424 27.41589711 -15.45703125 29.82421875 C-15.94969708 31.40390298 -16.44316749 32.98333653 -16.9375 34.5625 C-17.1535791 35.29903809 -17.3696582 36.03557617 -17.59228516 36.79443359 C-19.4929226 42.75102864 -22.5219955 47.87040702 -27.96850586 51.20532227 C-31.19226996 52.46639091 -33.69726249 51.78064705 -37 51 C-39 49.75 -39 49.75 -40 48 C-39.91877503 44.75100104 -39.43254382 43.43254382 -37.125 41.125 C-36.42375 40.75375 -35.7225 40.3825 -35 40 C-34.01 40.33 -33.02 40.66 -32 41 C-31.67 42.65 -31.34 44.3 -31 46 C-28.62102997 46.04510361 -28.62102997 46.04510361 -26 45 C-22.89007688 40.25359307 -21.01342779 35.60934823 -19.4375 30.1875 C-19.11845703 29.13647095 -19.11845703 29.13647095 -18.79296875 28.06420898 C-17.88782231 25.07039573 -17.01944374 22.07082406 -16.19140625 19.0546875 C-13.63789405 9.85050229 -10.67115021 -0.28731405 0 0 Z " fill="#414142" transform="translate(54,61)"/>
<path d="M0 0 C1.13115234 0.33644531 1.13115234 0.33644531 2.28515625 0.6796875 C3.27515625 0.0196875 4.26515625 -0.6403125 5.28515625 -1.3203125 C7.6953125 -1.55078125 7.6953125 -1.55078125 10.34765625 -1.5078125 C11.66443359 -1.49814453 11.66443359 -1.49814453 13.0078125 -1.48828125 C15.28515625 -1.3203125 15.28515625 -1.3203125 17.28515625 -0.3203125 C16.95515625 1.3296875 16.62515625 2.9796875 16.28515625 4.6796875 C11.33515625 4.6796875 6.38515625 4.6796875 1.28515625 4.6796875 C1.78015625 5.6696875 1.78015625 5.6696875 2.28515625 6.6796875 C3.27515625 7.0096875 4.26515625 7.3396875 5.28515625 7.6796875 C5.28515625 8.3396875 5.28515625 8.9996875 5.28515625 9.6796875 C3.47265625 9.5546875 3.47265625 9.5546875 1.28515625 8.6796875 C0.60453125 7.2565625 0.60453125 7.2565625 -0.08984375 5.8046875 C-2.06036438 2.01522474 -3.82585989 1.23528104 -7.71484375 -0.3203125 C-7.71484375 0.6696875 -7.71484375 1.6596875 -7.71484375 2.6796875 C-7.05484375 2.6796875 -6.39484375 2.6796875 -5.71484375 2.6796875 C-5.96484375 5.5546875 -5.96484375 5.5546875 -6.71484375 8.6796875 C-9.65074442 10.69932906 -11.57878242 10.8363446 -15.02734375 10.2421875 C-18.2820018 9.76120355 -20.12659537 9.7551753 -23.46484375 10.3671875 C-26.71484375 10.6796875 -26.71484375 10.6796875 -29.65234375 8.7421875 C-30.33296875 8.0615625 -31.01359375 7.3809375 -31.71484375 6.6796875 C-30.83984375 2.8046875 -30.83984375 2.8046875 -29.71484375 1.6796875 C-28.0486726 1.63904918 -26.3809628 1.6369665 -24.71484375 1.6796875 C-24.71484375 2.3396875 -24.71484375 2.9996875 -24.71484375 3.6796875 C-26.03484375 4.0096875 -27.35484375 4.3396875 -28.71484375 4.6796875 C-28.21984375 6.1646875 -28.21984375 6.1646875 -27.71484375 7.6796875 C-22.63180689 7.79289606 -22.63180689 7.79289606 -17.71484375 6.6796875 C-17.71484375 4.3696875 -17.71484375 2.0596875 -17.71484375 -0.3203125 C-27.94724933 -0.94189887 -27.94724933 -0.94189887 -36.71484375 3.6796875 C-37.90512359 6.27884288 -37.90512359 6.27884288 -38.71484375 8.6796875 C-40.83984375 9.4921875 -40.83984375 9.4921875 -42.71484375 9.6796875 C-42.71484375 7.6796875 -42.71484375 7.6796875 -41.71484375 6.6796875 C-42.25753906 6.95683594 -42.80023438 7.23398438 -43.359375 7.51953125 C-44.07480469 7.88175781 -44.79023437 8.24398437 -45.52734375 8.6171875 C-46.23503906 8.97683594 -46.94273438 9.33648437 -47.671875 9.70703125 C-52.88702212 12.1899598 -58.03589397 12.42606376 -63.71484375 11.6796875 C-66.33376815 10.29805022 -67.65675576 8.89608995 -69.71484375 6.6796875 C-70.37484375 6.0196875 -71.03484375 5.3596875 -71.71484375 4.6796875 C-67.36692555 5.33846298 -63.74067056 6.95433315 -59.71484375 8.6796875 C-56.93595762 9.37109272 -56.93595762 9.37109272 -54.71484375 9.6796875 C-56.29045031 6.30180818 -57.09748393 4.921838 -60.6328125 3.53515625 C-62.25123047 3.20451172 -62.25123047 3.20451172 -63.90234375 2.8671875 C-65.53236328 2.51720703 -65.53236328 2.51720703 -67.1953125 2.16015625 C-68.02675781 2.00160156 -68.85820313 1.84304687 -69.71484375 1.6796875 C-69.71484375 1.3496875 -69.71484375 1.0196875 -69.71484375 0.6796875 C-64.08342173 0.38840705 -60.61452666 0.56170747 -55.71484375 3.6796875 C-55.05484375 4.4221875 -54.39484375 5.1646875 -53.71484375 5.9296875 C-53.05484375 6.5071875 -52.39484375 7.0846875 -51.71484375 7.6796875 C-48.51529421 7.53619403 -48.51529421 7.53619403 -45.71484375 6.6796875 C-48.68484375 5.6896875 -51.65484375 4.6996875 -54.71484375 3.6796875 C-53.71484375 -0.3203125 -53.71484375 -0.3203125 -52.71484375 -1.3203125 C-51.13527735 -1.44609279 -49.54936681 -1.49609265 -47.96484375 -1.5078125 C-46.67320313 -1.52908203 -46.67320313 -1.52908203 -45.35546875 -1.55078125 C-42.71484375 -1.3203125 -42.71484375 -1.3203125 -40.1484375 -0.19140625 C-37.78576146 0.93661674 -37.78576146 0.93661674 -35.671875 0 C-34.96417969 -0.39445312 -34.25648437 -0.78890625 -33.52734375 -1.1953125 C-23.03301828 -5.80716854 -10.2942818 -4.4304504 0 0 Z " fill="#848685" transform="translate(118.71484375,117.3203125)"/>
<path d="M0 0 C2.4375 1.125 2.4375 1.125 4 3 C4.5625 5.875 4.5625 5.875 4 9 C0.36535178 13.9243621 -4.46392696 15.84105213 -10 18 C-9.42655063 20.86724686 -9.1385485 21.8614515 -7 24 C-4.67724823 24.40047444 -2.34260643 24.7397104 0 25 C-1.4375 28 -1.4375 28 -4 31 C-7.85219132 32.07452016 -11.37783165 31.87220457 -14.91796875 29.96875 C-16.5625 28.6875 -16.5625 28.6875 -19 26 C-19 25.01 -19 24.02 -19 23 C-19.928125 23.845625 -20.85625 24.69125 -21.8125 25.5625 C-23.39453125 27.00390625 -23.39453125 27.00390625 -25 28 C-25.99 27.67 -26.98 27.34 -28 27 C-28.33 26.01 -28.66 25.02 -29 24 C-27.576875 23.319375 -27.576875 23.319375 -26.125 22.625 C-22.30582589 20.7085977 -22.30582589 20.7085977 -20.39453125 17.1171875 C-20.20246094 16.37726563 -20.01039062 15.63734375 -19.8125 14.875 C-17.95491974 9.00845825 -14.32655319 3.99722881 -8.99609375 0.796875 C-5.89713006 -0.44028467 -3.29369003 -0.29407947 0 0 Z " fill="#434344" transform="translate(106,82)"/>
<path d="M0 0 C0.825 0.495 1.65 0.99 2.5 1.5 C2.17 2.82 1.84 4.14 1.5 5.5 C-2.5 3.5 -2.5 3.5 -4.30859375 2.41796875 C-9.02650938 0.44165828 -15.02235322 1.69114624 -19.7734375 3.2421875 C-21.37830761 3.92998897 -22.9452595 4.70535486 -24.5 5.5 C-23.675 6.325 -22.85 7.15 -22 8 C-19.90159373 10.53007841 -19.06009381 12.33033014 -18.875 15.625 C-19.5 19.5 -19.5 19.5 -21.5625 22 C-25.19141808 23.85306455 -27.47490253 24.02177189 -31.5 23.5 C-33.5 22.25 -33.5 22.25 -34.5 20.5 C-34.1875 18.3125 -34.1875 18.3125 -33.5 16.5 C-30.98916886 17.75541557 -30.62874554 19.00063488 -29.5 21.5 C-26.20924004 21.12095792 -26.20924004 21.12095792 -23.5 19.5 C-23.30034595 17.46618256 -23.30034595 17.46618256 -23.3125 15.125 C-23.29832031 14.33351562 -23.28414062 13.54203125 -23.26953125 12.7265625 C-23.35492491 10.21268667 -23.35492491 10.21268667 -25.5 7.5 C-29.88212747 7.76292765 -31.9481549 7.97382211 -35.1875 11.0625 C-38.83291831 14.39684262 -42.62241241 14.19002223 -47.37890625 14 C-52.27155086 13.21619711 -56.43340649 11.31336658 -60.5 8.5 C-60.83 7.84 -61.16 7.18 -61.5 6.5 C-60.79875 6.809375 -60.0975 7.11875 -59.375 7.4375 C-55.05548996 9.06068747 -55.05548996 9.06068747 -50.5 9.5 C-48.49567526 8.1409909 -46.83445946 6.64670705 -45.11328125 4.9453125 C-42.19561946 2.33142664 -39.29667622 2.36376939 -35.5625 2.375 C-34.28052734 2.37113281 -34.28052734 2.37113281 -32.97265625 2.3671875 C-30.5 2.5 -30.5 2.5 -28.63671875 3.16015625 C-25.2403515 3.70034629 -22.38254368 2.248605 -19.25 1.0625 C-12.2018452 -1.43176226 -7.14482398 -3.06206742 0 0 Z " fill="#606362" transform="translate(183.5,115.5)"/>
<path d="M0 0 C0.66 0.99 1.32 1.98 2 3 C1.46166095 5.47452436 0.82687889 7.68403927 0 10.0625 C-0.23275635 10.75915771 -0.4655127 11.45581543 -0.70532227 12.17358398 C-1.2054498 13.66932194 -1.71025938 15.16350084 -2.21923828 16.65625 C-3.01013851 19.03043455 -3.74321123 21.41642801 -4.46484375 23.8125 C-4.95537478 25.39594316 -5.44625209 26.9792791 -5.9375 28.5625 C-6.15341797 29.29927979 -6.36933594 30.03605957 -6.59179688 30.79516602 C-8.49425726 36.75119494 -11.52172735 41.87024283 -16.96850586 45.20532227 C-20.19226996 46.46639091 -22.69726249 45.78064705 -26 45 C-28 43.75 -28 43.75 -29 42 C-28.91877503 38.75100104 -28.43254382 37.43254382 -26.125 35.125 C-25.42375 34.75375 -24.7225 34.3825 -24 34 C-23.01 34.33 -22.02 34.66 -21 35 C-20.67 36.65 -20.34 38.3 -20 40 C-17.62102997 40.04510361 -17.62102997 40.04510361 -15 39 C-11.89022908 34.25382536 -10.01270447 29.60940896 -8.4375 24.1875 C-8.22625488 23.48898926 -8.01500977 22.79047852 -7.79736328 22.07080078 C-6.88269227 19.03661627 -5.99839084 15.99441444 -5.12109375 12.94921875 C-3.78966447 8.3554392 -2.32994377 4.21608872 0 0 Z " fill="#515151" transform="translate(43,67)"/>
<path d="M0 0 C-1.98 0.99 -1.98 0.99 -4 2 C-3.67 2.33 -3.34 2.66 -3 3 C-2.52358886 7.1288965 -2.5025073 9.27034404 -4.875 12.75 C-8.43570956 15.31371088 -11.58218143 16.33603479 -15.79296875 17.421875 C-18.02040955 17.92438316 -18.02040955 17.92438316 -20 19 C-19.7292395 12.50174807 -17.39426491 8.73307506 -13 4 C-8.58981411 0.24665031 -5.75416341 -0.46033307 0 0 Z " fill="#48484A" transform="translate(106,82)"/>
<path d="M0 0 C3.56883917 0.89120165 7.06342123 1.918021 10.5703125 3.02734375 C14.04538063 4.01286991 17.41788164 4.56704676 21 5 C20.67 5.99 20.34 6.98 20 8 C19.21625 8.103125 18.4325 8.20625 17.625 8.3125 C14.66954819 8.77595022 14.66954819 8.77595022 13 12 C12.64730321 14.21426858 12.64730321 14.21426858 12.6875 16.5625 C12.67074219 17.34753906 12.65398438 18.13257813 12.63671875 18.94140625 C12.75660156 19.62074219 12.87648438 20.30007812 13 21 C15.68671748 23.22738107 15.68671748 23.22738107 18.0625 22.875 C20.57283417 21.7413007 21.02691202 20.51381062 22 18 C22.66 18.33 23.32 18.66 24 19 C23.42655063 21.86724686 23.1385485 22.8614515 21 25 C18.94140625 25.08203125 18.94140625 25.08203125 16.5625 24.8125 C15.78003906 24.73644531 14.99757813 24.66039062 14.19140625 24.58203125 C11.58474235 23.88970875 10.59513661 23.160185 9 21 C8.13740172 14.42268813 8.13740172 14.42268813 10.125 11.14453125 C11.5 9.5 11.5 9.5 14 7 C4.7855269 3.19123914 4.7855269 3.19123914 -5 3 C-7.84920053 4.87769142 -7.84920053 4.87769142 -10 7 C-10.66 7 -11.32 7 -12 7 C-12.1875 4.625 -12.1875 4.625 -12 2 C-7.96652168 -0.68898555 -4.664099 -0.55292666 0 0 Z " fill="#505251" transform="translate(27,114)"/>
<path d="M0 0 C0 0.99 0 1.98 0 3 C-0.88945313 3.87785156 -0.88945313 3.87785156 -1.796875 4.7734375 C-4.49323628 7.49848348 -5.68120572 10.12948265 -7.25 13.625 C-7.68517944 14.58515015 -7.68517944 14.58515015 -8.12915039 15.56469727 C-9.09596347 17.70551596 -10.04843352 19.8523641 -11 22 C-11.74314485 23.66291452 -12.48664397 25.32567075 -13.23046875 26.98828125 C-15.16481172 31.32063309 -17.08551346 35.65883962 -19 40 C-19.66 39.34 -20.32 38.68 -21 38 C-21 36.68 -21 35.36 -21 34 C-20.01 33.505 -20.01 33.505 -19 33 C-18.06908596 31.16346962 -18.06908596 31.16346962 -17.265625 28.9140625 C-16.94182861 28.07020996 -16.61803223 27.22635742 -16.28442383 26.35693359 C-15.94306396 25.45539551 -15.6017041 24.55385742 -15.25 23.625 C-7.20844184 3.05102488 -7.20844184 3.05102488 -2.32421875 0.7265625 C-1.55722656 0.48679687 -0.79023437 0.24703125 0 0 Z " fill="#515151" transform="translate(72,67)"/>
<path d="M0 0 C1.60332791 -0.08121924 3.20784026 -0.13929134 4.8125 -0.1875 C6.15248047 -0.23970703 6.15248047 -0.23970703 7.51953125 -0.29296875 C10 0 10 0 11.83203125 1.3515625 C13 3 13 3 12.875 5.5625 C12 8 12 8 9 10 C6.66800612 10.07905064 4.33167378 10.08798769 2 10 C1.34 8.68 0.68 7.36 0 6 C1.65 5.67 3.3 5.34 5 5 C5 4.34 5 3.68 5 3 C3.35 3 1.7 3 0 3 C0 2.01 0 1.02 0 0 Z " fill="#F7F8F8" transform="translate(89,116)"/>
<path d="M0 0 C0.99 0.33 1.98 0.66 3 1 C3.33 2.65 3.66 4.3 4 6 C5.32 6.33 6.64 6.66 8 7 C7.67 8.32 7.34 9.64 7 11 C3.8125 11.75 3.8125 11.75 0 12 C-2.9375 10.0625 -2.9375 10.0625 -5 8 C-4.66275164 4.88045262 -4.3790035 3.3790035 -2.125 1.125 C-1.42375 0.75375 -0.7225 0.3825 0 0 Z " fill="#49494A" transform="translate(19,101)"/>
<path d="M0 0 C5.63142202 -0.29128045 9.10031709 -0.11798003 14 3 C14.61875 3.7425 15.2375 4.485 15.875 5.25 C17.80160461 7.20732624 17.80160461 7.20732624 20.0234375 7.03125 C22.0291266 6.7778998 24.01763178 6.39647364 26 6 C22.85402297 9.84508304 19.20128599 10.75104504 14.375 11.296875 C6.12953709 11.70018569 6.12953709 11.70018569 2.4375 8.625 C1.633125 7.75875 0.82875 6.8925 0 6 C-0.66 5.34 -1.32 4.68 -2 4 C2.3479182 4.65877548 5.97417319 6.27464565 10 8 C12.77888613 8.69140522 12.77888613 8.69140522 15 9 C13.42439344 5.62212068 12.61735982 4.2421505 9.08203125 2.85546875 C7.46361328 2.52482422 7.46361328 2.52482422 5.8125 2.1875 C4.18248047 1.83751953 4.18248047 1.83751953 2.51953125 1.48046875 C1.27236328 1.24263672 1.27236328 1.24263672 0 1 C0 0.67 0 0.34 0 0 Z " fill="#535655" transform="translate(49,118)"/>
<path d="M0 0 C1.3303125 0.02126953 1.3303125 0.02126953 2.6875 0.04296875 C4.0178125 0.05263672 4.0178125 0.05263672 5.375 0.0625 C7.6875 0.23046875 7.6875 0.23046875 9.6875 1.23046875 C9.6875 2.88046875 9.6875 4.53046875 9.6875 6.23046875 C7.34637549 7.68024769 6.1078071 8.27361286 3.328125 7.98828125 C2.14476563 7.67503906 2.14476563 7.67503906 0.9375 7.35546875 C-0.26132813 7.04996094 -0.26132813 7.04996094 -1.484375 6.73828125 C-2.08765625 6.57070312 -2.6909375 6.403125 -3.3125 6.23046875 C-3.9375 4.35546875 -3.9375 4.35546875 -4.3125 2.23046875 C-2.3125 0.23046875 -2.3125 0.23046875 0 0 Z " fill="#E8EAE9" transform="translate(68.3125,115.76953125)"/>
<path d="M0 0 C13.27430911 1.60900716 13.27430911 1.60900716 17 6 C17 6.99 17 7.98 17 9 C10.03949747 8.61330541 5.0605925 6.36561591 -1 3 C-0.67 2.01 -0.34 1.02 0 0 Z " fill="#EBEDEC" transform="translate(47,118)"/>
<path d="M0 0 C0.66 0.33 1.32 0.66 2 1 C0.68 2.65 -0.64 4.3 -2 6 C-1.11957031 5.72285156 -0.23914063 5.44570312 0.66796875 5.16015625 C1.82941406 4.79792969 2.99085938 4.43570313 4.1875 4.0625 C5.33605469 3.70285156 6.48460937 3.34320313 7.66796875 2.97265625 C10.44353006 2.16243964 13.15687548 1.50865693 16 1 C8.89764 8.29431567 8.89764 8.29431567 2.4375 8.4375 C-3.90888751 8.35257267 -8.78716075 6.60636677 -14 3 C-14.33 2.34 -14.66 1.68 -15 1 C-14.29875 1.309375 -13.5975 1.61875 -12.875 1.9375 C-9.7977925 3.07472886 -7.28694348 3.86013006 -4 4 C-1.60204619 2.18712805 -1.60204619 2.18712805 0 0 Z " fill="#444746" transform="translate(137,121)"/>
<path d="M0 0 C1.19882813 0.15275391 1.19882813 0.15275391 2.421875 0.30859375 C3.02515625 0.39238281 3.6284375 0.47617188 4.25 0.5625 C2.69743965 3.66762071 0.17705262 3.96939238 -3 5.1875 C-4.70929688 5.85652344 -4.70929688 5.85652344 -6.453125 6.5390625 C-9.46752314 7.47481168 -11.63134783 7.78526087 -14.75 7.5625 C-13.35440273 4.1898066 -11.8578412 2.48204898 -8.75 0.5625 C-5.64824924 -0.46701727 -3.22378703 -0.42667769 0 0 Z " fill="#EDEFEF" transform="translate(149.75,119.4375)"/>
<path d="M0 0 C0.886875 -0.00257812 1.77375 -0.00515625 2.6875 -0.0078125 C5 0.125 5 0.125 7 1.125 C6.67 2.775 6.34 4.425 6 6.125 C4.41705218 6.17937607 2.83355744 6.21796271 1.25 6.25 C0.36828125 6.27320312 -0.5134375 6.29640625 -1.421875 6.3203125 C-4.1135858 6.11639502 -5.69904974 5.49051721 -8 4.125 C-7.67 3.135 -7.34 2.145 -7 1.125 C-4.51245214 -0.11877393 -2.77344699 -0.00806235 0 0 Z " fill="#969898" transform="translate(129,115.875)"/>
<path d="M0 0 C0.43702768 4.45768233 0.51445113 6.34650802 -2.3125 9.9375 C-5 12 -5 12 -8 12 C-8.3200954 7.91878361 -8.37388366 5.62759043 -6.25 2.0625 C-4 0 -4 0 0 0 Z " fill="#F3F3F3" transform="translate(103,85)"/>
<path d="M0 0 C1.2065625 0.0309375 1.2065625 0.0309375 2.4375 0.0625 C2.4375 0.7225 2.4375 1.3825 2.4375 2.0625 C1.1175 2.3925 -0.2025 2.7225 -1.5625 3.0625 C-1.2325 4.0525 -0.9025 5.0425 -0.5625 6.0625 C0.51 6.0625 1.5825 6.0625 2.6875 6.0625 C8.27083333 6.0625 13.85416667 6.0625 19.4375 6.0625 C19.4375 4.4125 19.4375 2.7625 19.4375 1.0625 C20.0975 1.0625 20.7575 1.0625 21.4375 1.0625 C21.1875 3.9375 21.1875 3.9375 20.4375 7.0625 C17.50159933 9.08214156 15.57356133 9.2191571 12.125 8.625 C8.87034195 8.14401605 7.02574838 8.1379878 3.6875 8.75 C0.4375 9.0625 0.4375 9.0625 -2.5 7.125 C-3.180625 6.444375 -3.86125 5.76375 -4.5625 5.0625 C-3.43829114 0.08386076 -3.43829114 0.08386076 0 0 Z " fill="#686A69" transform="translate(91.5625,118.9375)"/>
<path d="M0 0 C1.65 0 3.3 0 5 0 C4.67 1.65 4.34 3.3 4 5 C5.65 4.67 7.3 4.34 9 4 C9.33 4.99 9.66 5.98 10 7 C8.9375 8.5 8.9375 8.5 7 10 C3.3125 10.1875 3.3125 10.1875 0 10 C0 6.66666667 0 3.33333333 0 0 Z " fill="#F7F9F8" transform="translate(102,116)"/>
<path d="M0 0 C0.66 0 1.32 0 2 0 C2 1.32 2 2.64 2 4 C-0.23046875 6.140625 -0.23046875 6.140625 -3.1875 8.25 C-4.15042969 8.95640625 -5.11335937 9.6628125 -6.10546875 10.390625 C-9.10972972 12.06101032 -10.63449916 12.36915914 -14 12 C-13.34 11.67 -12.68 11.34 -12 11 C-11.773125 10.21625 -11.54625 9.4325 -11.3125 8.625 C-9.42939052 4.85878103 -6.83045599 4.47842161 -3 3 C-1.24850835 1.41754725 -1.24850835 1.41754725 0 0 Z " fill="#464647" transform="translate(184,101)"/>
<path d="M0 0 C0.66 0 1.32 0 2 0 C2.33 3.3 2.66 6.6 3 10 C0.36749612 11.31625194 -0.80179056 10.74813658 -3.625 10.0625 C-4.44226563 9.86785156 -5.25953125 9.67320313 -6.1015625 9.47265625 C-6.72804688 9.31667969 -7.35453125 9.16070312 -8 9 C-8 8.01 -8 7.02 -8 6 C-2.74285714 2 -2.74285714 2 0 2 C0 1.34 0 0.68 0 0 Z " fill="#EDEEEF" transform="translate(111,105)"/>
<path d="M0 0 C1.2375 0.7425 1.2375 0.7425 2.5 1.5 C2.17 2.82 1.84 4.14 1.5 5.5 C-2.5 3.5 -2.5 3.5 -4.30859375 2.4140625 C-10.34928961 -0.10558604 -18.51523396 2.50507799 -24.5 4.5 C-24.5 3.84 -24.5 3.18 -24.5 2.5 C-7.61764706 -3.26470588 -7.61764706 -3.26470588 0 0 Z " fill="#555656" transform="translate(183.5,115.5)"/>
<path d="M0 0 C0.66 0 1.32 0 2 0 C1.37183502 3.94949704 0.1354471 7.19892028 -1.5625 10.8125 C-2.01753906 11.78832031 -2.47257812 12.76414062 -2.94140625 13.76953125 C-3.29074219 14.50558594 -3.64007813 15.24164063 -4 16 C-4.66 15.34 -5.32 14.68 -6 14 C-6 12.68 -6 11.36 -6 10 C-5.34 9.67 -4.68 9.34 -4 9 C-2.87293294 6.88984046 -2.87293294 6.88984046 -1.875 4.4375 C-1.34519531 3.19806641 -1.34519531 3.19806641 -0.8046875 1.93359375 C-0.53914063 1.29550781 -0.27359375 0.65742187 0 0 Z " fill="#4E4E4F" transform="translate(57,91)"/>
<path d="M0 0 C0.66 0.99 1.32 1.98 2 3 C1.32449143 5.52287767 0.58256223 7.77666782 -0.375 10.1875 C-0.6225 10.84169922 -0.87 11.49589844 -1.125 12.16992188 C-1.73787188 13.78460355 -2.3673723 15.3929558 -3 17 C-3.66 17 -4.32 17 -5 17 C-4.69343615 10.37822074 -3.25711277 5.77874846 0 0 Z " fill="#515153" transform="translate(43,67)"/>
<path d="M0 0 C0.75 1.75 0.75 1.75 1 4 C-0.5625 6.3125 -0.5625 6.3125 -3 8 C-8.34061673 8 -9.57389883 6.54088094 -14 3 C-9.71 3 -5.42 3 -1 3 C-0.67 2.01 -0.34 1.02 0 0 Z " fill="#DFE3E2" transform="translate(136,118)"/>
<path d="M0 0 C4.76350585 0.71452588 9.34201396 1.79534844 14 3 C14 4.32 14 5.64 14 7 C13.34 7 12.68 7 12 7 C12.33 7.66 12.66 8.32 13 9 C13.99 9.33 14.98 9.66 16 10 C16 10.66 16 11.32 16 12 C14.1875 11.875 14.1875 11.875 12 11 C11.608125 10.071875 11.21625 9.14375 10.8125 8.1875 C8.24318287 3.66904574 4.75244708 2.69374424 0 1 C0 0.67 0 0.34 0 0 Z " fill="#5D5F5E" transform="translate(108,115)"/>
<path d="M0 0 C0.763125 0.20625 1.52625 0.4125 2.3125 0.625 C2.6425 1.945 2.9725 3.265 3.3125 4.625 C0.60370665 5.97939668 -1.69683268 5.69001451 -4.6875 5.625 C-5.0175 4.305 -5.3475 2.985 -5.6875 1.625 C-2.6875 -0.375 -2.6875 -0.375 0 0 Z " fill="#3C3C3E" transform="translate(75.6875,106.375)"/>
<path d="M0 0 C-0.61875 0.391875 -1.2375 0.78375 -1.875 1.1875 C-4.19048524 2.86881579 -4.19048524 2.86881579 -5 5.625 C-5.33 6.40875 -5.66 7.1925 -6 8 C-8.125 8.8125 -8.125 8.8125 -10 9 C-10 7 -10 7 -9 6 C-9.66 5.67 -10.32 5.34 -11 5 C-10.67 4.01 -10.34 3.02 -10 2 C-9.34 2 -8.68 2 -8 2 C-7.67 1.34 -7.34 0.68 -7 0 C-4.0262656 -1.09036928 -3.11592499 -1.03864166 0 0 Z " fill="#555958" transform="translate(86,118)"/>
<path d="M0 0 C0 1.32 0 2.64 0 4 C-3.3 3.67 -6.6 3.34 -10 3 C-10 2.34 -10 1.68 -10 1 C-6.78548731 -0.60725635 -3.56387464 -0.05748185 0 0 Z " fill="#F9FBFA" transform="translate(133,117)"/>
<path d="M0 0 C6.0546875 -0.1953125 6.0546875 -0.1953125 8 0 C10 2 10 2 10 6 C8.35 6.33 6.7 6.66 5 7 C5 5.68 5 4.36 5 3 C2.525 2.01 2.525 2.01 0 1 C0 0.67 0 0.34 0 0 Z " fill="#B8BAB9" transform="translate(101,114)"/>
<path d="M0 0 C2.475 0.495 2.475 0.495 5 1 C5.66 3.64 6.32 6.28 7 9 C4.13998967 7.71792641 1.92960588 6.50848764 0 4 C0 2.68 0 1.36 0 0 Z " fill="#3B403F" transform="translate(93,69)"/>
<path d="M0 0 C1 2 1 2 0.14453125 4.75 C-0.29503906 5.8225 -0.73460938 6.895 -1.1875 8 C-1.61417969 9.0725 -2.04085937 10.145 -2.48046875 11.25 C-4.08022351 14.14518598 -4.92994855 14.94816225 -8 16 C-6.42986223 10.03347646 -3.24970218 5.17090975 0 0 Z " fill="#E4E4E5" transform="translate(70,70)"/>
<path d="M0 0 C0 3 0 3 -1.8125 4.9375 C-2.534375 5.618125 -3.25625 6.29875 -4 7 C-4.53625 7.7425 -5.0725 8.485 -5.625 9.25 C-6.07875 9.8275 -6.5325 10.405 -7 11 C-7.66 11 -8.32 11 -9 11 C-7.85781803 7.13415332 -6.8281145 3.93688813 -4 1 C-1.8125 0.25 -1.8125 0.25 0 0 Z " fill="#5A5A5B" transform="translate(72,67)"/>
<path d="M0 0 C1.65 0.33 3.3 0.66 5 1 C3.50902342 4.7952131 1.24299151 6.61042731 -2 9 C-1.34 6.03 -0.68 3.06 0 0 Z " fill="#383D3B" transform="translate(105,69)"/>
<path d="M0 0 C1.98 0.495 1.98 0.495 4 1 C3.34 4.3 2.68 7.6 2 11 C-0.30694043 7.53958935 -0.62056512 5.09789669 -1 1 C-0.67 0.67 -0.34 0.34 0 0 Z " fill="#383E3C" transform="translate(100,66)"/>
<path d="M0 0 C0.66 0.33 1.32 0.66 2 1 C1.42655063 3.86724686 1.1385485 4.8614515 -1 7 C-3.09375 7.08203125 -3.09375 7.08203125 -5.5 6.8125 C-6.69109375 6.69841797 -6.69109375 6.69841797 -7.90625 6.58203125 C-10 6 -10 6 -12 3 C-11.443125 3.144375 -10.88625 3.28875 -10.3125 3.4375 C-7.88615805 4.02769128 -5.45093655 4.523429 -3 5 C-2.01 3.35 -1.02 1.7 0 0 Z " fill="#5C5E5D" transform="translate(49,132)"/>
<path d="M0 0 C1.3303125 0.00773437 1.3303125 0.00773437 2.6875 0.015625 C3.574375 0.01046875 4.46125 0.0053125 5.375 0 C7.6875 0.265625 7.6875 0.265625 9.6875 2.265625 C6.0575 2.265625 2.4275 2.265625 -1.3125 2.265625 C-1.3125 2.925625 -1.3125 3.585625 -1.3125 4.265625 C1.3275 4.595625 3.9675 4.925625 6.6875 5.265625 C6.6875 5.595625 6.6875 5.925625 6.6875 6.265625 C3.3875 6.265625 0.0875 6.265625 -3.3125 6.265625 C-3.6425 4.945625 -3.9725 3.625625 -4.3125 2.265625 C-2.3125 0.265625 -2.3125 0.265625 0 0 Z " fill="#6A6C6B" transform="translate(68.3125,115.734375)"/>
<path d="M0 0 C0.33 0.66 0.66 1.32 1 2 C1.66 2.33 2.32 2.66 3 3 C-1.39453125 7.00390625 -1.39453125 7.00390625 -3 8 C-3.99 7.67 -4.98 7.34 -6 7 C-6.33 6.01 -6.66 5.02 -7 4 C-6.030625 3.525625 -5.06125 3.05125 -4.0625 2.5625 C-1.19522563 1.29806053 -1.19522563 1.29806053 0 0 Z " fill="#4D4D4E" transform="translate(84,102)"/>
<path d="M0 0 C-0.5775 0.2475 -1.155 0.495 -1.75 0.75 C-4.13266887 1.9318612 -4.13266887 1.9318612 -6.0625 4.125 C-8 6 -8 6 -11 6 C-11 5.34 -11 4.68 -11 4 C-11.66 3.67 -12.32 3.34 -13 3 C-11.40084119 2.30093058 -9.79544955 1.61610532 -8.1875 0.9375 C-7.29417969 0.55464844 -6.40085938 0.17179687 -5.48046875 -0.22265625 C-3 -1 -3 -1 0 0 Z " fill="#535756" transform="translate(153,123)"/>
<path d="M0 0 C0.99 0 1.98 0 3 0 C4.125 4.75 4.125 4.75 3 7 C1.68 6.67 0.36 6.34 -1 6 C-1.042721 4.33388095 -1.04063832 2.66617115 -1 1 C-0.67 0.67 -0.34 0.34 0 0 Z " fill="#C7C8C8" transform="translate(98,117)"/>
<path d="M0 0 C0.66 0 1.32 0 2 0 C2 1.32 2 2.64 2 4 C-1 6.25 -1 6.25 -4 8 C-5.32 7.01 -6.64 6.02 -8 5 C-7.236875 4.731875 -6.47375 4.46375 -5.6875 4.1875 C-3.09503074 3.04199033 -1.91184456 2.00288478 0 0 Z " fill="#505050" transform="translate(184,101)"/>
<path d="M0 0 C-2.54712074 2.00130916 -4.9527375 3.85727656 -8 5 C-10.25 4.625 -10.25 4.625 -12 4 C-8.07829422 -0.09996514 -5.68430095 -0.10526483 0 0 Z " fill="#4F4F4F" transform="translate(106,82)"/>
<path d="M0 0 C2 1 2 1 2.8125 3 C3.85955198 5.28474077 3.85955198 5.28474077 6.625 5.75 C7.40875 5.8325 8.1925 5.915 9 6 C9 6.33 9 6.66 9 7 C2.58131488 7.3633218 2.58131488 7.3633218 0 5.75 C-1 4 -1 4 -0.6875 1.8125 C-0.460625 1.214375 -0.23375 0.61625 0 0 Z " fill="#646665" transform="translate(150,132)"/>
<path d="M0 0 C2.64 0 5.28 0 8 0 C8 0.99 8 1.98 8 3 C6.02 3.99 6.02 3.99 4 5 C2.68 3.35 1.36 1.7 0 0 Z " fill="#3C3C3C" transform="translate(100,83)"/>
<path d="M0 0 C1.12758089 3.38274266 0.81750262 4.76778223 0.0625 8.1875 C-0.13214844 9.08855469 -0.32679687 9.98960938 -0.52734375 10.91796875 C-0.68332031 11.60503906 -0.83929688 12.29210937 -1 13 C-1.33 12.34 -1.66 11.68 -2 11 C-2.66 11 -3.32 11 -4 11 C-3.5247412 9.35303396 -3.04468109 7.70745272 -2.5625 6.0625 C-2.29566406 5.14597656 -2.02882812 4.22945313 -1.75390625 3.28515625 C-1 1 -1 1 0 0 Z " fill="#D3D3D4" transform="translate(45,69)"/>
<path d="M0 0 C0.99 0.33 1.98 0.66 3 1 C2.67 1.99 2.34 2.98 2 4 C2.33 4.66 2.66 5.32 3 6 C1.35 6 -0.3 6 -2 6 C-2 3 -2 3 0 0 Z " fill="#39393B" transform="translate(152,106)"/>
<path d="M0 0 C1.2065625 0.0309375 1.2065625 0.0309375 2.4375 0.0625 C2.4375 0.7225 2.4375 1.3825 2.4375 2.0625 C1.1175 2.3925 -0.2025 2.7225 -1.5625 3.0625 C-1.5625 4.0525 -1.5625 5.0425 -1.5625 6.0625 C-2.5525 5.7325 -3.5425 5.4025 -4.5625 5.0625 C-3.43829114 0.08386076 -3.43829114 0.08386076 0 0 Z " fill="#939594" transform="translate(91.5625,118.9375)"/>
<path d="M0 0 C1.32 0 2.64 0 4 0 C3.67 1.32 3.34 2.64 3 4 C1.35 4 -0.3 4 -2 4 C-1.34 2.68 -0.68 1.36 0 0 Z " fill="#3E3E40" transform="translate(23,108)"/>
<path d="M0 0 C1.25541557 3.76624671 0.37061958 5.37188934 -1 9 C-1.66 9 -2.32 9 -3 9 C-2.25 2.25 -2.25 2.25 0 0 Z " fill="#434343" transform="translate(41,75)"/>
<path d="M0 0 C0.66 0 1.32 0 2 0 C1.67 1.65 1.34 3.3 1 5 C-2.3 5 -5.6 5 -9 5 C-9 4.67 -9 4.34 -9 4 C-6.36 3.67 -3.72 3.34 -1 3 C-0.67 2.01 -0.34 1.02 0 0 Z " fill="#4F5150" transform="translate(134,117)"/>
<path d="M0 0 C0.66 0 1.32 0 2 0 C1.60196439 2.88575819 1.20990931 3.82189513 -1.0625 5.75 C-1.701875 6.1625 -2.34125 6.575 -3 7 C-2.25 2.25 -2.25 2.25 0 0 Z " fill="#4C4C4E" transform="translate(30,104)"/>
<path d="M0 0 C0.99 0.33 1.98 0.66 3 1 C2.67 2.98 2.34 4.96 2 7 C1.01 7 0.02 7 -1 7 C-0.67 4.69 -0.34 2.38 0 0 Z " fill="#595959" transform="translate(37,83)"/>
<path d="M0 0 C0.66 0.66 1.32 1.32 2 2 C-0.475 3.485 -0.475 3.485 -3 5 C-3.66 4.01 -4.32 3.02 -5 2 C-3.35 1.34 -1.7 0.68 0 0 Z " fill="#545454" transform="translate(163,105)"/>
</svg>
